<svg width="11" height="10" viewBox="0 0 11 10" fill="none" xmlns="http://www.w3.org/2000/svg">
<path d="M9.50589 4.34181H2.54072L4.67256 1.78126C4.77224 1.66133 4.8202 1.50671 4.80588 1.35142C4.79156 1.19612 4.71614 1.05288 4.59621 0.953193C4.47628 0.853509 4.32166 0.80555 4.16636 0.819868C4.01107 0.834186 3.86783 0.909607 3.76814 1.02954L0.83173 4.55323C0.811974 4.58126 0.794308 4.6107 0.778875 4.64132C0.778875 4.67069 0.778875 4.68831 0.737765 4.71767C0.711146 4.78501 0.697208 4.85669 0.696655 4.92909C0.697208 5.0015 0.711146 5.07318 0.737765 5.14051C0.737765 5.16988 0.737765 5.1875 0.778875 5.21686C0.794308 5.24748 0.811974 5.27693 0.83173 5.30495L3.76814 8.82865C3.82336 8.89494 3.8925 8.94825 3.97066 8.9848C4.04882 9.02134 4.13407 9.04021 4.22035 9.04007C4.35757 9.04034 4.49055 8.99255 4.59621 8.90499C4.65568 8.85569 4.70483 8.79514 4.74086 8.72681C4.77689 8.65848 4.79909 8.58372 4.80618 8.5068C4.81328 8.42988 4.80512 8.35232 4.78219 8.27855C4.75926 8.20479 4.72201 8.13627 4.67256 8.07693L2.54072 5.51638H9.50589C9.66164 5.51638 9.81102 5.4545 9.92116 5.34436C10.0313 5.23423 10.0932 5.08485 10.0932 4.92909C10.0932 4.77334 10.0313 4.62396 9.92116 4.51382C9.81102 4.40369 9.66164 4.34181 9.50589 4.34181Z" fill="#F53838"/>
</svg>
