<svg width="10" height="10" viewBox="0 0 10 10" fill="none" xmlns="http://www.w3.org/2000/svg">
<path d="M0.870517 4.34181H7.83568L5.70385 1.78126C5.60416 1.66133 5.55621 1.50671 5.57052 1.35142C5.58484 1.19612 5.66026 1.05288 5.78019 0.953193C5.90013 0.853509 6.05475 0.80555 6.21004 0.819868C6.36533 0.834186 6.50858 0.909607 6.60826 1.02954L9.54467 4.55323C9.56443 4.58126 9.5821 4.6107 9.59753 4.64132C9.59753 4.67069 9.59753 4.68831 9.63864 4.71767C9.66526 4.78501 9.6792 4.85669 9.67975 4.92909C9.6792 5.0015 9.66526 5.07318 9.63864 5.14051C9.63864 5.16988 9.63864 5.1875 9.59753 5.21686C9.5821 5.24748 9.56443 5.27693 9.54467 5.30495L6.60826 8.82865C6.55305 8.89494 6.4839 8.94825 6.40574 8.9848C6.32758 9.02134 6.24233 9.04021 6.15606 9.04007C6.01884 9.04034 5.88585 8.99255 5.78019 8.90499C5.72073 8.85569 5.67157 8.79514 5.63554 8.72681C5.59951 8.65848 5.57731 8.58372 5.57022 8.5068C5.56313 8.42988 5.57128 8.35232 5.59421 8.27855C5.61714 8.20479 5.6544 8.13627 5.70385 8.07693L7.83568 5.51638H0.870517C0.71476 5.51638 0.565382 5.4545 0.455245 5.34436C0.345108 5.23423 0.283235 5.08485 0.283235 4.92909C0.283235 4.77334 0.345108 4.62396 0.455245 4.51382C0.565382 4.40369 0.71476 4.34181 0.870517 4.34181Z" fill="white"/>
</svg>
